<svg xmlns="http://www.w3.org/2000/svg" xmlns:xlink="http://www.w3.org/1999/xlink" width="500" zoomAndPan="magnify" viewBox="0 0 375 374.999991" height="500" preserveAspectRatio="xMidYMid meet" version="1.0"><defs><g/><clipPath id="88a315a1b1"><path d="M 4.214844 148.074219 L 353.546875 148.074219 L 353.546875 202.484375 L 4.214844 202.484375 Z M 4.214844 148.074219 " clip-rule="nonzero"/></clipPath></defs><g fill="#000000" fill-opacity="1"><g transform="translate(70.052185, 240.286458)"><g><path d="M 11.730469 0 L 118.695312 0 L 120.304688 -25.992188 L 117.773438 -26.453125 C 109.722656 -9.199219 99.601562 -3.679688 77.519531 -3.679688 L 50.144531 -3.679688 C 43.476562 -3.679688 39.792969 -7.359375 39.792969 -14.03125 L 39.792969 -131.804688 C 39.792969 -150.667969 41.863281 -155.957031 48.996094 -158.027344 L 48.996094 -161.019531 L 11.730469 -161.019531 L 11.730469 -158.027344 C 18.632812 -155.957031 20.933594 -150.667969 20.933594 -131.804688 L 20.933594 -29.214844 C 20.933594 -10.351562 18.632812 -5.0625 11.730469 -2.992188 Z M 11.730469 0 "/></g></g></g><g fill="#000000" fill-opacity="1"><g transform="translate(179.997152, 240.286458)"><g><path d="M 11.730469 0 L 118.695312 0 L 120.304688 -25.992188 L 117.773438 -26.453125 C 109.722656 -9.199219 99.601562 -3.679688 77.519531 -3.679688 L 50.144531 -3.679688 C 43.476562 -3.679688 39.792969 -7.359375 39.792969 -14.03125 L 39.792969 -131.804688 C 39.792969 -150.667969 41.863281 -155.957031 48.996094 -158.027344 L 48.996094 -161.019531 L 11.730469 -161.019531 L 11.730469 -158.027344 C 18.632812 -155.957031 20.933594 -150.667969 20.933594 -131.804688 L 20.933594 -29.214844 C 20.933594 -10.351562 18.632812 -5.0625 11.730469 -2.992188 Z M 11.730469 0 "/></g></g></g><g clip-path="url(#88a315a1b1)"><path fill="#ffffff" d="M 4.214844 148.074219 L 353.546875 148.074219 L 353.546875 202.484375 L 4.214844 202.484375 Z M 4.214844 148.074219 " fill-opacity="1" fill-rule="nonzero"/></g><g fill="#000000" fill-opacity="1"><g transform="translate(98.630055, 276.719456)"><g><path d="M 1.257812 0 L 7.730469 0 C 13.164062 0 16.671875 -3.753906 16.644531 -8.964844 C 16.621094 -12.964844 13.953125 -17.289062 7.164062 -17.289062 L 1.257812 -17.289062 L 1.257812 -16.96875 C 2 -16.746094 2.246094 -16.175781 2.246094 -14.152344 L 2.246094 -3.136719 C 2.246094 -1.113281 2 -0.542969 1.257812 -0.320312 Z M 4.273438 -2.171875 L 4.273438 -16.917969 L 5.953125 -16.917969 C 11.460938 -16.917969 14.398438 -12.917969 14.398438 -7.976562 C 14.398438 -2.816406 12.003906 -0.371094 7.679688 -0.371094 L 5.878906 -0.371094 C 4.519531 -0.371094 4.273438 -1.011719 4.273438 -2.171875 Z M 4.273438 -2.171875 "/></g></g></g><g fill="#000000" fill-opacity="1"><g transform="translate(135.861955, 276.719456)"><g><path d="M -0.417969 0 L 2.371094 0 L 2.371094 -0.320312 C 1.53125 -0.492188 1.433594 -1.308594 2.074219 -2.914062 L 3.53125 -6.519531 L 10.496094 -6.519531 L 12.003906 -2.890625 C 12.792969 -1.039062 12.992188 -0.542969 12.226562 -0.320312 L 12.226562 0 L 16.054688 0 L 16.054688 -0.320312 C 15.535156 -0.542969 14.941406 -1.039062 14.175781 -2.890625 L 8.101562 -17.484375 L 6.25 -16.644531 L 6.46875 -16.128906 C 6.667969 -15.730469 6.691406 -15.410156 6.519531 -14.964844 L 1.65625 -2.914062 C 0.890625 -1.039062 0.273438 -0.542969 -0.417969 -0.320312 Z M 3.679688 -6.890625 L 6.964844 -15.015625 L 10.347656 -6.890625 Z M 3.679688 -6.890625 "/></g></g></g><g fill="#000000" fill-opacity="1"><g transform="translate(171.020722, 276.719456)"><g><path d="M 14.300781 0.199219 L 14.621094 0.199219 L 14.621094 -14.152344 C 14.621094 -16.175781 14.84375 -16.746094 15.609375 -16.96875 L 15.609375 -17.289062 L 12.496094 -17.289062 L 12.496094 -16.96875 C 13.609375 -16.671875 14.199219 -15.980469 14.199219 -13.164062 L 14.199219 -3.308594 L 3.40625 -17.289062 L 0.988281 -17.289062 L 0.988281 -16.96875 C 1.976562 -16.746094 2.273438 -16.175781 2.273438 -14.152344 L 2.273438 -3.136719 C 2.273438 -1.113281 2.023438 -0.542969 1.285156 -0.320312 L 1.285156 0 L 4.371094 0 L 4.371094 -0.320312 C 3.261719 -0.617188 2.667969 -1.308594 2.667969 -4.125 L 2.667969 -14.941406 Z M 14.300781 0.199219 "/></g></g></g><g fill="#000000" fill-opacity="1"><g transform="translate(206.944576, 276.719456)"><g><path d="M 10.59375 0.246094 C 13.359375 0.246094 15.707031 -0.445312 16.867188 -1.085938 L 17.261719 -4.296875 L 16.992188 -4.320312 C 16.027344 -1.65625 13.953125 -0.246094 11.285156 -0.246094 C 6.148438 -0.246094 3.335938 -4.691406 3.359375 -9.335938 C 3.359375 -14.375 6.398438 -16.992188 10.324219 -16.992188 C 13.261719 -16.992188 15.609375 -15.484375 16.570312 -13.238281 L 16.820312 -13.285156 L 16.71875 -16.226562 C 15.757812 -16.84375 13.285156 -17.460938 11.164062 -17.460938 C 5.359375 -17.460938 1.285156 -13.558594 1.285156 -8.296875 C 1.285156 -2.914062 4.914062 0.246094 10.59375 0.246094 Z M 10.59375 0.246094 "/></g></g></g><g fill="#000000" fill-opacity="1"><g transform="translate(244.57135, 276.719456)"><g><path d="M 1.257812 0 L 13.433594 0 L 13.632812 -3.285156 L 13.359375 -3.335938 C 12.472656 -1.039062 10.964844 -0.371094 8.59375 -0.371094 L 5.382812 -0.371094 C 4.667969 -0.371094 4.273438 -0.765625 4.273438 -1.480469 L 4.273438 -9.0625 L 7.433594 -9.0625 C 10.25 -9.0625 10.964844 -8.496094 11.261719 -7.382812 L 11.558594 -7.382812 L 11.558594 -11.113281 L 11.261719 -11.113281 C 10.964844 -10.003906 10.25 -9.433594 7.433594 -9.433594 L 4.273438 -9.433594 L 4.273438 -16.917969 L 7.902344 -16.917969 C 10.421875 -16.917969 11.878906 -16.175781 12.742188 -14.003906 L 13.015625 -14.078125 L 12.742188 -17.289062 L 1.257812 -17.289062 L 1.257812 -16.96875 C 2 -16.746094 2.246094 -16.175781 2.246094 -14.152344 L 2.246094 -3.136719 C 2.246094 -1.113281 2 -0.542969 1.257812 -0.320312 Z M 1.257812 0 "/></g></g></g><g fill="#000000" fill-opacity="1"><g transform="translate(74.488217, 205.413567)"><g><path d="M 24.191406 -8.589844 C 27.261719 -8.039062 31.519531 -7.957031 34.589844 -8.589844 C 36.640625 -8.984375 39.398438 -10.480469 40.894531 -12.054688 C 41.367188 -12.609375 41.761719 -13.710938 41.605469 -13.867188 C 41.367188 -14.027344 40.894531 -13.710938 40.894531 -13.316406 L 40.816406 -12.84375 C 40.816406 -12.449219 39.949219 -11.582031 38.925781 -10.953125 C 35.695312 -8.902344 32.78125 -8.984375 29.234375 -9.140625 C 24.03125 -9.457031 17.414062 -12.132812 13.082031 -14.734375 L 12.527344 -14.972656 C 16.3125 -17.335938 21.667969 -25.292969 22.457031 -26.554688 C 26.238281 -32.859375 27.738281 -36.5625 30.335938 -43.496094 C 35.144531 -45.859375 38.296875 -46.960938 40.738281 -50.667969 C 41.761719 -52.320312 42.234375 -54.054688 41.761719 -54.527344 C 41.445312 -54.84375 40.816406 -54.765625 39.160156 -54.132812 C 35.539062 -52.636719 30.886719 -47.828125 29.234375 -44.046875 C 25.292969 -42.472656 20.171875 -42.3125 18.203125 -42.550781 C 15.050781 -43.023438 11.425781 -44.992188 10.636719 -48.222656 C 10.402344 -49.089844 10.007812 -49.246094 9.847656 -48.539062 C 9.769531 -47.910156 10.085938 -46.488281 10.402344 -45.9375 C 11.1875 -44.835938 12.84375 -43.417969 14.183594 -42.867188 C 18.832031 -40.816406 25.53125 -41.917969 28.210938 -43.179688 L 28.683594 -43.257812 L 27.894531 -41.683594 C 25.53125 -36.875 23.480469 -31.914062 20.722656 -27.183594 C 19.070312 -24.269531 17.257812 -21.195312 14.65625 -18.359375 L 12.527344 -16.074219 C 11.742188 -15.207031 11.976562 -15.207031 9.296875 -16.46875 C 8.039062 -17.097656 7.800781 -17.175781 7.40625 -17.019531 C 6.539062 -16.625 5.515625 -14.972656 5.515625 -14.027344 C 5.515625 -13.472656 6.144531 -12.84375 6.777344 -12.6875 C 7.644531 -12.527344 9.21875 -12.921875 9.769531 -13.394531 C 10.324219 -13.867188 10.636719 -13.867188 11.425781 -13.394531 C 12.449219 -12.84375 14.8125 -11.742188 15.207031 -11.582031 C 15.445312 -11.503906 15.917969 -11.347656 16.230469 -11.1875 C 18.28125 -10.085938 21.355469 -9.0625 24.191406 -8.589844 Z M 30.886719 -44.519531 L 31.441406 -45.9375 C 33.644531 -49.246094 35.222656 -51.375 36.796875 -52.398438 C 38.296875 -53.34375 40.34375 -54.210938 41.132812 -54.289062 C 41.445312 -54.289062 41.445312 -54.210938 41.367188 -53.503906 C 41.210938 -52.480469 40.972656 -51.847656 40.109375 -50.585938 C 38.136719 -47.59375 34.199219 -45.308594 30.886719 -44.519531 Z M 6.304688 -13.710938 C 6.144531 -13.867188 6.144531 -14.105469 6.382812 -14.734375 C 6.699219 -15.367188 7.089844 -15.996094 7.25 -15.996094 C 7.328125 -15.996094 7.878906 -15.601562 8.589844 -15.128906 L 9.929688 -14.183594 L 9.457031 -13.945312 C 8.273438 -13.316406 6.699219 -13.238281 6.304688 -13.710938 Z M 6.304688 -13.710938 "/></g></g></g><g fill="#000000" fill-opacity="1"><g transform="translate(108.524639, 205.413567)"><g><path d="M 5.359375 -32.78125 C 5.4375 -33.253906 5.515625 -33.726562 5.515625 -33.960938 C 5.59375 -34.277344 5.515625 -34.355469 5.199219 -34.433594 L 4.414062 -34.355469 C 3.941406 -34.277344 3.941406 -33.960938 4.414062 -32.859375 C 4.964844 -31.832031 5.28125 -31.753906 5.359375 -32.78125 Z M 2.757812 -22.140625 C 4.648438 -22.140625 6.699219 -22.695312 8.589844 -23.953125 C 9.769531 -24.585938 10.953125 -25.453125 10.636719 -25.453125 C 10.480469 -25.453125 10.242188 -25.371094 10.164062 -25.292969 C 9.847656 -25.058594 9.21875 -24.664062 8.351562 -24.269531 C 6.144531 -23.167969 5.121094 -22.929688 2.835938 -22.929688 C 1.574219 -22.929688 1.101562 -23.558594 1.101562 -23.558594 C 0.867188 -23.875 0.945312 -24.347656 1.023438 -24.664062 C 1.183594 -25.292969 2.128906 -27.183594 2.601562 -27.816406 C 2.601562 -27.894531 2.679688 -27.972656 2.679688 -28.050781 C 2.835938 -28.289062 2.914062 -28.523438 2.914062 -28.683594 C 2.757812 -29.074219 1.96875 -28.996094 1.496094 -28.601562 C 0.945312 -28.210938 0 -26.632812 -0.316406 -25.609375 C -0.550781 -24.820312 -0.945312 -24.03125 -0.710938 -23.558594 C -0.628906 -23.402344 -0.15625 -22.851562 0.789062 -22.457031 C 1.339844 -22.300781 1.96875 -22.0625 2.757812 -22.140625 Z M 2.757812 -22.140625 "/></g></g></g><g fill="#000000" fill-opacity="1"><g transform="translate(118.76709, 205.413567)"><g><path d="M 3.46875 -17.964844 C 4.332031 -17.652344 4.964844 -17.652344 5.671875 -17.964844 C 5.988281 -18.125 5.988281 -18.203125 5.4375 -18.125 C 2.601562 -17.808594 1.8125 -21.589844 1.8125 -24.980469 C 1.734375 -28.367188 4.253906 -34.984375 6.066406 -39.714844 C 6.304688 -40.34375 6.617188 -40.972656 7.011719 -41.605469 C 8.511719 -42.628906 10.714844 -44.519531 12.214844 -46.332031 C 13.316406 -47.59375 14.65625 -48.773438 15.207031 -50.351562 C 15.601562 -52.558594 14.261719 -52.398438 13.082031 -51.847656 C 11.347656 -51.140625 8.351562 -47.355469 6.226562 -43.179688 L 5.4375 -41.683594 C 4.964844 -40.972656 2.128906 -40.027344 1.261719 -39.949219 C 0.472656 -39.871094 -0.945312 -39.949219 0.15625 -39.242188 C 1.023438 -38.6875 1.339844 -39.003906 2.363281 -39.320312 C 2.757812 -39.476562 4.492188 -40.421875 4.492188 -40.34375 C 4.570312 -40.34375 1.023438 -31.992188 0.394531 -29.074219 C -0.316406 -25.765625 -0.550781 -19.382812 3.46875 -17.964844 Z M 7.25 -42.394531 C 7.011719 -42.628906 11.1875 -49.089844 11.503906 -49.484375 C 12.527344 -50.824219 13.238281 -51.53125 13.632812 -51.613281 C 14.339844 -52.003906 15.445312 -51.925781 14.734375 -50.273438 C 14.5 -49.40625 11.898438 -46.332031 10.242188 -44.835938 C 9.21875 -43.890625 7.40625 -42.3125 7.25 -42.394531 Z M 7.25 -42.394531 "/></g></g></g><g fill="#000000" fill-opacity="1"><g transform="translate(126.173154, 205.413567)"><g><path d="M 3.46875 -17.964844 C 4.332031 -17.652344 4.964844 -17.652344 5.671875 -17.964844 C 5.988281 -18.125 5.988281 -18.203125 5.4375 -18.125 C 2.601562 -17.808594 1.8125 -21.589844 1.8125 -24.980469 C 1.734375 -28.367188 4.253906 -34.984375 6.066406 -39.714844 C 6.304688 -40.34375 6.617188 -40.972656 7.011719 -41.605469 C 8.511719 -42.628906 10.714844 -44.519531 12.214844 -46.332031 C 13.316406 -47.59375 14.65625 -48.773438 15.207031 -50.351562 C 15.601562 -52.558594 14.261719 -52.398438 13.082031 -51.847656 C 11.347656 -51.140625 8.351562 -47.355469 6.226562 -43.179688 L 5.4375 -41.683594 C 4.964844 -40.972656 2.128906 -40.027344 1.261719 -39.949219 C 0.472656 -39.871094 -0.945312 -39.949219 0.15625 -39.242188 C 1.023438 -38.6875 1.339844 -39.003906 2.363281 -39.320312 C 2.757812 -39.476562 4.492188 -40.421875 4.492188 -40.34375 C 4.570312 -40.34375 1.023438 -31.992188 0.394531 -29.074219 C -0.316406 -25.765625 -0.550781 -19.382812 3.46875 -17.964844 Z M 7.25 -42.394531 C 7.011719 -42.628906 11.1875 -49.089844 11.503906 -49.484375 C 12.527344 -50.824219 13.238281 -51.53125 13.632812 -51.613281 C 14.339844 -52.003906 15.445312 -51.925781 14.734375 -50.273438 C 14.5 -49.40625 11.898438 -46.332031 10.242188 -44.835938 C 9.21875 -43.890625 7.40625 -42.3125 7.25 -42.394531 Z M 7.25 -42.394531 "/></g></g></g><g fill="#000000" fill-opacity="1"><g transform="translate(133.579218, 205.413567)"><g><path d="M 5.042969 -21.828125 C 6.382812 -22.21875 7.957031 -22.929688 9.0625 -23.640625 C 9.296875 -23.796875 11.898438 -25.136719 11.503906 -25.53125 C 11.425781 -25.609375 10.953125 -25.214844 10.714844 -25.058594 L 9.535156 -24.425781 C 8.117188 -23.71875 6.382812 -22.613281 3.386719 -22.613281 C 1.496094 -22.613281 0.710938 -23.402344 1.183594 -25.136719 L 1.339844 -25.453125 C 1.574219 -25.925781 1.734375 -26.003906 2.523438 -26.082031 C 3.625 -26.160156 4.492188 -26.554688 5.042969 -27.105469 C 5.359375 -27.421875 5.515625 -27.816406 5.515625 -28.128906 C 5.515625 -29.234375 4.886719 -29.46875 2.835938 -28.839844 C 1.8125 -28.445312 0.867188 -27.5 0.867188 -27.5 C 0.15625 -26.710938 -0.628906 -25.609375 -0.789062 -24.503906 C -0.789062 -24.03125 -0.867188 -23.480469 -0.628906 -23.007812 C 0.078125 -21.433594 2.363281 -21.039062 5.042969 -21.828125 Z M 1.890625 -26.554688 C 2.046875 -27.027344 2.914062 -28.128906 3.703125 -28.445312 C 4.492188 -28.839844 4.726562 -28.839844 4.804688 -28.367188 C 4.886719 -27.894531 4.648438 -27.421875 4.097656 -27.027344 C 3.386719 -26.632812 2.363281 -26.476562 1.890625 -26.554688 Z M 1.890625 -26.554688 "/></g></g></g><g fill="#000000" fill-opacity="1"><g transform="translate(144.77687, 205.413567)"><g/></g></g><g fill="#000000" fill-opacity="1"><g transform="translate(156.595075, 205.413567)"><g/></g></g><g fill="#000000" fill-opacity="1"><g transform="translate(168.41328, 205.413567)"><g/></g></g><g fill="#000000" fill-opacity="1"><g transform="translate(180.231485, 205.413567)"><g/></g></g><g fill="#000000" fill-opacity="1"><g transform="translate(192.054501, 205.413567)"><g><path d="M 24.191406 -8.589844 C 27.261719 -8.039062 31.519531 -7.957031 34.589844 -8.589844 C 36.640625 -8.984375 39.398438 -10.480469 40.894531 -12.054688 C 41.367188 -12.609375 41.761719 -13.710938 41.605469 -13.867188 C 41.367188 -14.027344 40.894531 -13.710938 40.894531 -13.316406 L 40.816406 -12.84375 C 40.816406 -12.449219 39.949219 -11.582031 38.925781 -10.953125 C 35.695312 -8.902344 32.78125 -8.984375 29.234375 -9.140625 C 24.03125 -9.457031 17.414062 -12.132812 13.082031 -14.734375 L 12.527344 -14.972656 C 16.3125 -17.335938 21.667969 -25.292969 22.457031 -26.554688 C 26.238281 -32.859375 27.738281 -36.5625 30.335938 -43.496094 C 35.144531 -45.859375 38.296875 -46.960938 40.738281 -50.667969 C 41.761719 -52.320312 42.234375 -54.054688 41.761719 -54.527344 C 41.445312 -54.84375 40.816406 -54.765625 39.160156 -54.132812 C 35.539062 -52.636719 30.886719 -47.828125 29.234375 -44.046875 C 25.292969 -42.472656 20.171875 -42.3125 18.203125 -42.550781 C 15.050781 -43.023438 11.425781 -44.992188 10.636719 -48.222656 C 10.402344 -49.089844 10.007812 -49.246094 9.847656 -48.539062 C 9.769531 -47.910156 10.085938 -46.488281 10.402344 -45.9375 C 11.1875 -44.835938 12.84375 -43.417969 14.183594 -42.867188 C 18.832031 -40.816406 25.53125 -41.917969 28.210938 -43.179688 L 28.683594 -43.257812 L 27.894531 -41.683594 C 25.53125 -36.875 23.480469 -31.914062 20.722656 -27.183594 C 19.070312 -24.269531 17.257812 -21.195312 14.65625 -18.359375 L 12.527344 -16.074219 C 11.742188 -15.207031 11.976562 -15.207031 9.296875 -16.46875 C 8.039062 -17.097656 7.800781 -17.175781 7.40625 -17.019531 C 6.539062 -16.625 5.515625 -14.972656 5.515625 -14.027344 C 5.515625 -13.472656 6.144531 -12.84375 6.777344 -12.6875 C 7.644531 -12.527344 9.21875 -12.921875 9.769531 -13.394531 C 10.324219 -13.867188 10.636719 -13.867188 11.425781 -13.394531 C 12.449219 -12.84375 14.8125 -11.742188 15.207031 -11.582031 C 15.445312 -11.503906 15.917969 -11.347656 16.230469 -11.1875 C 18.28125 -10.085938 21.355469 -9.0625 24.191406 -8.589844 Z M 30.886719 -44.519531 L 31.441406 -45.9375 C 33.644531 -49.246094 35.222656 -51.375 36.796875 -52.398438 C 38.296875 -53.34375 40.34375 -54.210938 41.132812 -54.289062 C 41.445312 -54.289062 41.445312 -54.210938 41.367188 -53.503906 C 41.210938 -52.480469 40.972656 -51.847656 40.109375 -50.585938 C 38.136719 -47.59375 34.199219 -45.308594 30.886719 -44.519531 Z M 6.304688 -13.710938 C 6.144531 -13.867188 6.144531 -14.105469 6.382812 -14.734375 C 6.699219 -15.367188 7.089844 -15.996094 7.25 -15.996094 C 7.328125 -15.996094 7.878906 -15.601562 8.589844 -15.128906 L 9.929688 -14.183594 L 9.457031 -13.945312 C 8.273438 -13.316406 6.699219 -13.238281 6.304688 -13.710938 Z M 6.304688 -13.710938 "/></g></g></g><g fill="#000000" fill-opacity="1"><g transform="translate(226.090922, 205.413567)"><g><path d="M -0.238281 -22.695312 C 0.472656 -22.695312 0.867188 -22.929688 1.96875 -23.796875 L 2.835938 -24.503906 C 3.074219 -23.640625 3.546875 -23.007812 4.175781 -22.695312 C 6.144531 -21.589844 12.609375 -23.796875 13 -25.453125 C 13 -25.53125 12.371094 -24.898438 10.558594 -24.191406 C 8.589844 -23.558594 7.011719 -22.929688 5.988281 -23.402344 C 4.804688 -23.953125 4.964844 -24.980469 5.28125 -25.925781 C 5.671875 -27.183594 6.066406 -27.894531 5.832031 -28.128906 C 5.753906 -28.210938 5.515625 -28.445312 5.359375 -28.683594 C 4.964844 -29.3125 4.253906 -29.390625 3.074219 -28.839844 C 1.417969 -28.050781 -0.867188 -25.058594 -1.023438 -23.640625 C -1.101562 -22.929688 -0.867188 -22.695312 -0.238281 -22.695312 Z M 0.550781 -23.558594 C -0.316406 -23.558594 1.8125 -27.34375 3.074219 -28.128906 C 3.703125 -28.523438 4.570312 -28.601562 4.726562 -28.289062 C 4.964844 -27.816406 1.261719 -23.558594 0.550781 -23.558594 Z M 0.550781 -23.558594 "/></g></g></g><g fill="#000000" fill-opacity="1"><g transform="translate(238.93337, 205.413567)"><g><path d="M 1.8125 -17.808594 C 2.441406 -17.652344 2.601562 -17.886719 1.96875 -18.042969 C 1.574219 -18.203125 1.101562 -18.753906 0.867188 -19.542969 C 0.628906 -20.410156 0.550781 -21.511719 0.550781 -22.613281 C 0.316406 -24.191406 3.941406 -33.410156 5.910156 -37.824219 C 5.910156 -37.824219 8.824219 -37.824219 11.109375 -38.214844 C 12.609375 -38.453125 15.128906 -39.160156 15.601562 -39.320312 C 16.703125 -39.554688 18.28125 -40.109375 18.910156 -39.871094 C 19.621094 -39.632812 19.699219 -39.792969 18.988281 -40.109375 C 18.4375 -40.421875 16.3125 -40.1875 15.285156 -39.949219 C 12.921875 -39.554688 12.292969 -39.398438 10.953125 -39.082031 C 9.691406 -38.847656 6.226562 -38.296875 6.066406 -38.53125 C 7.089844 -40.816406 8.429688 -43.023438 8.511719 -43.890625 C 8.351562 -44.285156 7.089844 -44.125 6.617188 -43.652344 C 5.832031 -41.761719 5.4375 -40.972656 4.332031 -38.769531 C 3.703125 -38.925781 2.835938 -39.160156 1.496094 -40.1875 C 0.472656 -40.972656 0.789062 -41.527344 -1.496094 -43.8125 C -1.734375 -44.125 -2.835938 -44.675781 -4.097656 -45.070312 C -5.121094 -45.464844 -6.855469 -45.464844 -8.273438 -45.152344 C -9.929688 -44.757812 -10.558594 -44.125 -10.164062 -43.730469 C -10.007812 -43.574219 -9.929688 -43.574219 -9.929688 -43.730469 C -9.929688 -44.046875 -7.957031 -44.597656 -6.933594 -44.597656 C -5.988281 -44.597656 -5.121094 -44.363281 -3.78125 -43.730469 C -3.386719 -43.496094 -2.363281 -42.628906 -1.183594 -41.527344 C 0.316406 -39.949219 1.890625 -38.6875 4.019531 -38.136719 C 2.679688 -34.277344 -0.628906 -27.972656 -1.101562 -23.640625 C -1.339844 -21.90625 -0.628906 -19.226562 0.316406 -18.4375 C 0.710938 -18.125 1.101562 -17.964844 1.8125 -17.808594 Z M 1.8125 -17.808594 "/></g></g></g><g fill="#000000" fill-opacity="1"><g transform="translate(244.212168, 205.413567)"><g><path d="M 5.359375 -32.78125 C 5.4375 -33.253906 5.515625 -33.726562 5.515625 -33.960938 C 5.59375 -34.277344 5.515625 -34.355469 5.199219 -34.433594 L 4.414062 -34.355469 C 3.941406 -34.277344 3.941406 -33.960938 4.414062 -32.859375 C 4.964844 -31.832031 5.28125 -31.753906 5.359375 -32.78125 Z M 2.757812 -22.140625 C 4.648438 -22.140625 6.699219 -22.695312 8.589844 -23.953125 C 9.769531 -24.585938 10.953125 -25.453125 10.636719 -25.453125 C 10.480469 -25.453125 10.242188 -25.371094 10.164062 -25.292969 C 9.847656 -25.058594 9.21875 -24.664062 8.351562 -24.269531 C 6.144531 -23.167969 5.121094 -22.929688 2.835938 -22.929688 C 1.574219 -22.929688 1.101562 -23.558594 1.101562 -23.558594 C 0.867188 -23.875 0.945312 -24.347656 1.023438 -24.664062 C 1.183594 -25.292969 2.128906 -27.183594 2.601562 -27.816406 C 2.601562 -27.894531 2.679688 -27.972656 2.679688 -28.050781 C 2.835938 -28.289062 2.914062 -28.523438 2.914062 -28.683594 C 2.757812 -29.074219 1.96875 -28.996094 1.496094 -28.601562 C 0.945312 -28.210938 0 -26.632812 -0.316406 -25.609375 C -0.550781 -24.820312 -0.945312 -24.03125 -0.710938 -23.558594 C -0.628906 -23.402344 -0.15625 -22.851562 0.789062 -22.457031 C 1.339844 -22.300781 1.96875 -22.0625 2.757812 -22.140625 Z M 2.757812 -22.140625 "/></g></g></g><g fill="#000000" fill-opacity="1"><g transform="translate(254.454619, 205.413567)"><g><path d="M 7.089844 -21.828125 C 9.296875 -21.195312 11.1875 -21.828125 13.945312 -23.558594 C 16.074219 -24.898438 16.230469 -25.53125 15.917969 -25.292969 L 14.105469 -24.113281 C 11.742188 -22.535156 8.273438 -21.117188 7.25 -24.113281 C 7.011719 -24.820312 6.855469 -25.292969 6.855469 -26.398438 C 6.855469 -26.554688 6.699219 -26.789062 6.539062 -26.949219 C 5.910156 -27.578125 4.648438 -27.261719 2.996094 -26.003906 C 2.679688 -25.765625 2.441406 -25.6875 2.363281 -25.6875 C 2.285156 -25.6875 2.523438 -26.238281 2.679688 -26.710938 C 2.996094 -27.738281 3.230469 -27.972656 3.152344 -28.367188 C 3.074219 -28.683594 2.128906 -28.601562 1.574219 -28.210938 C 1.101562 -27.894531 0.945312 -27.65625 0.15625 -26.003906 C -0.394531 -24.898438 -0.472656 -23.640625 0 -23.246094 C 0.472656 -22.851562 0.867188 -23.167969 2.046875 -24.347656 C 2.285156 -24.585938 4.175781 -26.316406 4.648438 -26.316406 C 4.726562 -26.316406 4.726562 -25.925781 4.726562 -25.53125 C 4.804688 -24.113281 5.042969 -22.378906 7.089844 -21.828125 Z M 7.089844 -21.828125 "/></g></g></g><g fill="#000000" fill-opacity="1"><g transform="translate(270.369795, 205.413567)"><g><path d="M -0.238281 -22.695312 C 0.472656 -22.695312 0.867188 -22.929688 1.96875 -23.796875 L 2.835938 -24.503906 C 3.074219 -23.640625 3.546875 -23.007812 4.175781 -22.695312 C 6.144531 -21.589844 12.609375 -23.796875 13 -25.453125 C 13 -25.53125 12.371094 -24.898438 10.558594 -24.191406 C 8.589844 -23.558594 7.011719 -22.929688 5.988281 -23.402344 C 4.804688 -23.953125 4.964844 -24.980469 5.28125 -25.925781 C 5.671875 -27.183594 6.066406 -27.894531 5.832031 -28.128906 C 5.753906 -28.210938 5.515625 -28.445312 5.359375 -28.683594 C 4.964844 -29.3125 4.253906 -29.390625 3.074219 -28.839844 C 1.417969 -28.050781 -0.867188 -25.058594 -1.023438 -23.640625 C -1.101562 -22.929688 -0.867188 -22.695312 -0.238281 -22.695312 Z M 0.550781 -23.558594 C -0.316406 -23.558594 1.8125 -27.34375 3.074219 -28.128906 C 3.703125 -28.523438 4.570312 -28.601562 4.726562 -28.289062 C 4.964844 -27.816406 1.261719 -23.558594 0.550781 -23.558594 Z M 0.550781 -23.558594 "/></g></g></g></svg>